<svg width="21" height="21" viewBox="0 0 21 21" fill="none" xmlns="http://www.w3.org/2000/svg">
<g clip-path="url(#clip0)">
<path d="M6.64319 14.0762V8.37485H5.3252V6.91382H8.46188V14.0762H6.64319Z" fill="#ECE8E1"/>
<path d="M15.2972 8.76308C15.2972 9.38632 14.9601 9.93804 14.3981 10.2446C15.1848 10.5715 15.6752 11.2561 15.6752 12.053C15.6752 13.3404 14.5309 14.1578 12.7429 14.1578C10.9549 14.1578 9.81055 13.3506 9.81055 12.0837C9.81055 11.2663 10.3418 10.5715 11.1694 10.2446C10.5666 9.90739 10.1784 9.3353 10.1784 8.71206C10.1784 7.56763 11.1797 6.84229 12.7327 6.84229C14.3061 6.84229 15.2972 7.58813 15.2972 8.76308ZM11.527 11.8998C11.527 12.5027 11.9562 12.8399 12.7429 12.8399C13.5296 12.8399 13.9689 12.513 13.9689 11.8998C13.9689 11.3073 13.5296 10.97 12.7429 10.97C11.9561 10.97 11.527 11.3072 11.527 11.8998ZM11.711 8.86525C11.711 9.37623 12.0788 9.66218 12.7429 9.66218C13.407 9.66218 13.7748 9.37617 13.7748 8.86525C13.7748 8.3341 13.407 8.03774 12.7429 8.03774C12.0787 8.03774 11.711 8.3341 11.711 8.86525Z" fill="#ECE8E1"/>
<path d="M18.7021 7.72228C19.0045 8.61467 19.1579 9.54806 19.1579 10.5C19.1579 15.2734 15.2744 19.1569 10.5009 19.1569C5.72749 19.1569 1.84394 15.2734 1.84394 10.5C1.84394 5.72651 5.72742 1.84315 10.5009 1.84315C11.453 1.84315 12.3864 1.99641 13.2786 2.29889V0.37241C12.3774 0.12535 11.4465 0 10.5009 0C4.71128 0 0.000976562 4.7103 0.000976562 10.5C0.000976562 16.2898 4.71128 21.0001 10.5009 21.0001C16.2906 21.0001 21.0008 16.2898 21.0008 10.5C21.0008 9.55451 20.8756 8.62361 20.6285 7.72228H18.7021Z" fill="#ECE8E1"/>
<path d="M18.1775 2.8168V0.803467H16.7298V2.8168H14.7285V4.26442H16.7298V6.27769H18.1775V4.26442H20.1907V2.8168H18.1775Z" fill="#ECE8E1"/>
</g>
<defs>
<clipPath id="clip0">
<rect width="21" height="21" fill="white"/>
</clipPath>
</defs>
</svg>
