<svg width="150" height="38" viewBox="0 0 150 38" fill="none" xmlns="http://www.w3.org/2000/svg">
<g clip-path="url(#clip0)">
<path fill-rule="evenodd" clip-rule="evenodd" d="M5.52542 5.47846C12.8294 -1.8255 24.6752 -1.8255 31.977 5.47846C39.281 12.7803 39.281 24.6261 31.977 31.9279C24.6752 39.2319 12.8294 39.2319 5.52542 31.9279C-1.77638 24.6261 -1.77638 12.7803 5.52542 5.47846ZM14.7591 14.71L14.7635 14.7057L20.5962 8.8751C22.5108 9.23367 24.3406 10.1529 25.8227 11.6328C29.7257 15.538 29.7257 21.8684 25.8227 25.7735C25.7205 25.8735 25.6162 25.9735 25.5097 26.0713L20.9092 30.6849L18.5426 33.0514C14.9395 32.9993 11.3538 31.5998 8.60478 28.8507C3.00021 23.2462 3.00021 14.1602 8.60478 8.55565L8.6352 8.52522L14.4049 2.7555C11.7167 3.48568 9.17632 4.90475 7.06618 7.01706C0.611919 13.4691 0.611919 23.9351 7.06618 30.3893C10.4715 33.7968 14.996 35.4028 19.4575 35.2137L21.9871 32.6863L27.3613 27.3121C32.1161 22.5573 32.1161 14.8491 27.3613 10.0942C25.2555 7.98846 22.5695 6.81495 19.8182 6.57591L17.6234 8.76862L13.2206 13.1714C10.1673 16.2269 10.1673 21.1795 13.2206 24.2328C14.1029 25.1151 15.1416 25.7409 16.2456 26.1147L18.0558 24.3045C16.8519 24.1567 15.6849 23.6199 14.7613 22.6942C12.5556 20.4906 12.5556 16.9158 14.7591 14.71ZM16.3021 16.2464L16.2999 16.2508C14.9439 17.6047 14.9439 19.8017 16.2999 21.1556C17.6494 22.5051 19.8356 22.5095 21.1917 21.1686L21.2047 21.1556C22.5608 19.8017 22.5608 17.6047 21.2047 16.2508C19.8508 14.8969 17.6581 14.8947 16.3021 16.2464ZM21.2569 11.2916L19.4488 13.0997C20.6527 13.2497 21.8197 13.7864 22.7433 14.71C24.9491 16.9158 24.9491 20.4906 22.7433 22.6942L18.9164 26.5233L17.067 28.3726L16.9084 28.5291C14.9938 28.1727 13.1641 27.2535 11.682 25.7735C7.7768 21.8684 7.7768 15.538 11.682 11.6328L18.6752 4.63963L18.9599 4.35494C22.5629 4.4071 26.1508 5.80661 28.8999 8.55565C34.5044 14.1602 34.5044 23.2462 28.8999 28.8507L28.889 28.8616L23.0997 34.6509C25.7879 33.9207 28.3283 32.4994 30.4384 30.3893C36.8927 23.9351 36.8927 13.4691 30.4384 7.01706C27.0309 3.60955 22.5086 2.00142 18.045 2.19048L15.5176 4.72003L10.1738 10.0638L10.1434 10.0942C5.38851 14.8491 5.38851 22.5573 10.1434 27.3121C12.247 29.4136 14.9265 30.5871 17.6733 30.8283L19.8639 28.6378L24.0103 24.4936L24.2819 24.2328C27.3374 21.1795 27.3374 16.2269 24.2819 13.1714C23.4018 12.2913 22.363 11.6633 21.2569 11.2916Z" fill="#FF5100"/>
<path d="M58.8284 29.2397H55.7707C55.4317 27.7402 55.071 26.2364 54.6928 24.7282C54.3125 23.2179 53.9518 21.7032 53.6128 20.1863L52.6218 15.8378H52.5327C52.3719 16.5572 52.2133 17.2765 52.0525 17.9958C51.8938 18.7151 51.733 19.4366 51.5744 20.1559C51.2332 21.6749 50.8681 23.194 50.4791 24.713C50.0901 26.232 49.725 27.7402 49.3838 29.2397H46.3262L42.0386 8.40132H45.7264C45.9655 9.83995 46.2154 11.2655 46.4762 12.6737C46.7369 14.0841 46.9868 15.5075 47.2259 16.9462C47.3845 17.7872 47.5258 18.6303 47.6453 19.4801C47.7648 20.3298 47.8952 21.1751 48.0343 22.0139H48.156C48.2951 21.375 48.4298 20.7253 48.5602 20.0646C48.6906 19.4062 48.834 18.7564 48.9948 18.1153C49.3751 16.4963 49.7446 14.8773 50.1031 13.2583C50.4639 11.6393 50.8333 10.0203 51.2136 8.40132H53.9714L56.2206 18.1762C56.3618 18.8368 56.4966 19.4866 56.6248 20.1255C56.7552 20.7644 56.9008 21.4142 57.0594 22.0748H57.1811L57.9308 17.0961C58.2307 15.3185 58.4937 13.7494 58.724 12.3891C58.9544 11.0308 59.1804 9.70086 59.3999 8.40132H63.0877L58.8284 29.2397ZM65.3369 29.2397V8.37089H76.9394V11.5502H68.7531V17.1265H75.8007V20.245H68.7531V26.0017H76.9394V29.2397H65.3369ZM91.6017 24.8021C91.2627 26.2625 90.5434 27.3968 89.4437 28.2053C88.3441 29.0158 87.0141 29.4201 85.456 29.4201C84.3759 29.4201 83.4371 29.2505 82.6374 28.9115C81.8377 28.5703 81.1684 28.1009 80.6273 27.5012C80.0883 26.9014 79.6885 26.1973 79.4277 25.3867C79.1691 24.5783 79.0387 23.7025 79.0387 22.7637V14.6687C79.0387 13.8494 79.1691 13.0497 79.4277 12.2695C79.6885 11.4894 80.084 10.8005 80.612 10.2007C81.1423 9.6009 81.8073 9.12063 82.607 8.76206C83.4067 8.40132 84.3564 8.22095 85.456 8.22095C87.1337 8.22095 88.4984 8.6621 89.548 9.54005C90.5977 10.4202 91.2931 11.5198 91.6321 12.8389L88.3637 13.919C88.3028 13.6191 88.2029 13.3279 88.0638 13.0497C87.9247 12.7694 87.7335 12.5151 87.4944 12.2847C87.2532 12.0544 86.9642 11.8697 86.6252 11.7306C86.284 11.5893 85.895 11.5198 85.456 11.5198C84.9344 11.5198 84.4911 11.6089 84.1217 11.7893C83.7501 11.9696 83.4458 12.2043 83.2068 12.4934C82.9656 12.7846 82.7874 13.1084 82.6657 13.4691C82.5461 13.8277 82.4875 14.1884 82.4875 14.5492V22.855C82.4875 23.2939 82.5461 23.7134 82.6657 24.1132C82.7874 24.5131 82.9721 24.863 83.222 25.1628C83.4719 25.4627 83.7805 25.6974 84.1499 25.8669C84.5215 26.0365 84.9562 26.1212 85.456 26.1212C86.1949 26.1212 86.8251 25.9126 87.3445 25.4932C87.8638 25.0716 88.1942 24.4935 88.3333 23.7525L91.6017 24.8021Z" fill="white"/>
<path d="M106.953 14.8187C106.953 15.7184 106.825 16.5573 106.564 17.3374C106.303 18.1154 105.919 18.7956 105.41 19.3758C104.899 19.9561 104.256 20.4103 103.476 20.7406C102.696 21.0709 101.787 21.2339 100.747 21.2339H97.6889V29.2398H94.2705V8.371H100.566C101.546 8.371 102.426 8.50139 103.207 8.76217C103.985 9.02077 104.656 9.41629 105.215 9.94654C105.775 10.4746 106.203 11.1461 106.503 11.9545C106.803 12.7651 106.953 13.7191 106.953 14.8187ZM103.565 14.7427C103.565 13.7083 103.315 12.9194 102.815 12.3696C102.316 11.8241 101.557 11.5503 100.538 11.5503H97.6889V17.9959H100.566C101.588 17.9959 102.342 17.7025 102.831 17.1179C103.32 16.5268 103.565 15.738 103.565 14.7427ZM109.322 29.2398V8.371H112.74V26.0018H120.807V29.2398H109.322ZM132.051 24.7435H126.264C126.222 24.9217 126.144 25.2216 126.022 25.6432C125.903 26.0626 125.779 26.5125 125.649 26.9927C125.518 27.4708 125.399 27.9207 125.288 28.3401C125.179 28.7595 125.095 29.0616 125.034 29.2398H121.465L127.492 8.371H130.79L136.847 29.2398H133.22L132.051 24.7435ZM128.091 17.4874L127.013 21.6837H131.271L130.221 17.5178C130.182 17.3374 130.117 17.0375 130.025 16.6181C129.936 16.1965 129.836 15.7575 129.726 15.2968C129.617 14.8383 129.51 14.4037 129.413 13.9929C129.31 13.5844 129.252 13.2888 129.232 13.1085H129.082L128.091 17.4874ZM143.084 17.1266C143.303 16.4464 143.534 15.7771 143.773 15.1186C144.014 14.458 144.253 13.7887 144.494 13.1085L146.322 8.371H149.951L144.672 20.7254V29.2398H141.315V20.7254L136.039 8.34058H139.757C140.057 9.16203 140.361 9.97044 140.669 10.7702C140.98 11.5699 141.276 12.3696 141.554 13.1693C141.776 13.8082 141.999 14.4689 142.23 15.1491C142.46 15.8271 142.684 16.4877 142.903 17.1266H143.084Z" fill="white"/>
</g>
<defs>
<clipPath id="clip0">
<rect width="150" height="37.4065" fill="white"/>
</clipPath>
</defs>
</svg>
