<svg width="60" height="60" viewBox="0 0 60 60" fill="none" xmlns="http://www.w3.org/2000/svg">
<circle cx="30" cy="30" r="30" fill="#0F1923"/>
<path d="M26.3072 27.395C27.4455 27.395 28.3682 26.4723 28.3682 25.334C28.3682 24.1957 27.4455 23.2729 26.3072 23.2729C25.1689 23.2729 24.2461 24.1957 24.2461 25.334C24.2461 26.4723 25.1689 27.395 26.3072 27.395Z" fill="#ECE8E1"/>
<path d="M43.2252 32.9198C42.2519 32.0038 41.021 31.4027 39.6756 31.2309V20.7538C39.6756 19.6374 39.2176 18.6355 38.5019 17.8912C37.7576 17.1469 36.7557 16.7176 35.6393 16.7176H19.0363C17.9198 16.7176 16.9179 17.1756 16.1737 17.8912C15.4294 18.6355 15 19.6374 15 20.7538V33.9504V35.1813V37.8435C15 38.9599 15.458 39.9618 16.1737 40.7061C16.9179 41.4504 17.9198 41.8798 19.0363 41.8798H35.0954C36.1546 42.7386 37.4714 43.2824 38.9313 43.2824C40.6202 43.2824 42.1374 42.5954 43.2252 41.5076C44.313 40.4198 45 38.9027 45 37.2137C45 35.5248 44.313 34.0076 43.2252 32.9198ZM16.5172 20.7538C16.5172 20.0668 16.8034 19.437 17.2615 19.0076C17.7195 18.5496 18.3492 18.2634 19.0363 18.2634H35.6393C36.3263 18.2634 36.9561 18.5496 37.4141 19.0076C37.8721 19.4656 38.1584 20.0954 38.1584 20.7824V29.7137L33.9218 25.4771C33.6355 25.1908 33.1489 25.1622 32.834 25.4771L26.4504 31.8893L22.1279 27.5382C21.8416 27.2519 21.355 27.2233 21.0401 27.5382L16.5172 32.1183V20.7538ZM19.0076 40.4198V40.3626C18.3206 40.3626 17.6908 40.0763 17.2328 39.6183C16.8034 39.1603 16.5172 38.5305 16.5172 37.8435V35.1813V34.2939L21.584 29.1985L25.9065 33.521C26.1927 33.8073 26.6794 33.8073 26.9943 33.521L33.3779 27.1088L37.5573 31.3168C37.4714 31.3454 37.3855 31.374 37.2996 31.4027C37.1851 31.4313 37.0706 31.4599 36.9275 31.5172C36.813 31.5458 36.6985 31.6031 36.584 31.6317C36.4981 31.6603 36.4408 31.6889 36.355 31.7462C36.2405 31.8034 36.1546 31.8321 36.0687 31.8893C35.9256 31.9752 35.7824 32.0611 35.6393 32.1469C35.5534 32.2042 35.4962 32.2328 35.4103 32.2901C35.3531 32.3187 35.3244 32.3473 35.2672 32.376C35.0095 32.5477 34.7805 32.7481 34.5802 32.9771C33.4924 34.0649 32.8053 35.5821 32.8053 37.271C32.8053 37.7004 32.8626 38.1011 32.9485 38.5305C32.9771 38.645 33.0057 38.7309 33.0344 38.8454C33.1202 39.1317 33.2061 39.4179 33.3206 39.7042V39.7328C33.4351 39.9618 33.5496 40.2195 33.6927 40.4198H19.0076ZM42.1088 40.4198C41.2786 41.25 40.1622 41.7366 38.9027 41.7366C37.7004 41.7366 36.584 41.25 35.7824 40.4771C35.6679 40.3626 35.5534 40.2195 35.4389 40.105C35.3531 40.0191 35.2672 39.9046 35.1813 39.8187C35.0668 39.6756 34.9809 39.5038 34.895 39.3321C34.8378 39.2176 34.7805 39.1317 34.7233 39.0172C34.666 38.874 34.6088 38.7023 34.5802 38.5305C34.5515 38.416 34.4943 38.2729 34.4656 38.1584C34.4084 37.8721 34.3798 37.5573 34.3798 37.2424C34.3798 35.9828 34.895 34.8664 35.6966 34.0363C36.4981 33.2061 37.6431 32.7195 38.9027 32.7195C40.1622 32.7195 41.2786 33.2347 42.1088 34.0363C42.9389 34.8664 43.4256 35.9828 43.4256 37.2424C43.4256 38.4733 42.9103 39.5897 42.1088 40.4198Z" fill="#ECE8E1"/>
<path d="M39.4464 34.1508C39.3892 34.0935 39.3033 34.0363 39.1888 33.979C39.1029 33.9504 39.017 33.9218 38.9312 33.9218C38.9025 33.9218 38.9025 33.9218 38.9025 33.9218C38.8739 33.9218 38.8739 33.9218 38.8739 33.9218C38.788 33.9218 38.7022 33.9504 38.6163 33.979C38.5304 34.0076 38.4445 34.0649 38.3586 34.1508L36.5838 35.9256C36.2976 36.2118 36.2976 36.6985 36.5838 37.0134C36.8701 37.2996 37.3567 37.2996 37.6716 37.0134L38.1296 36.5553V39.7042C38.1296 40.1336 38.4731 40.4771 38.9025 40.4771C39.3319 40.4771 39.6754 40.1336 39.6754 39.7042V36.5553L40.1335 37.0134C40.4197 37.2996 40.9064 37.2996 41.2212 37.0134C41.5075 36.7271 41.5075 36.2405 41.2212 35.9256L39.4464 34.1508Z" fill="#ECE8E1"/>
</svg>
