<svg width="150" height="37" viewBox="0 0 150 37" fill="none" xmlns="http://www.w3.org/2000/svg">
<path fill-rule="evenodd" clip-rule="evenodd" d="M5.52542 5.41897C12.8294 -1.80563 24.6752 -1.80563 31.977 5.41897C39.281 12.6414 39.281 24.3586 31.977 31.581C24.6752 38.8056 12.8294 38.8056 5.52542 31.581C-1.77638 24.3586 -1.77638 12.6414 5.52542 5.41897ZM14.7591 14.5502L14.7635 14.5459L20.5962 8.7787C22.5108 9.13337 24.3406 10.0426 25.8227 11.5065C29.7257 15.3692 29.7257 21.6308 25.8227 25.4935C25.7205 25.5924 25.6162 25.6913 25.5097 25.788L20.9092 30.3515L18.5426 32.6923C14.9395 32.6407 11.3538 31.2564 8.60478 28.5373C3.00021 22.9936 3.00021 14.0064 8.60478 8.46271L8.6352 8.43262L14.4049 2.7256C11.7167 3.44784 9.17632 4.85149 7.06618 6.94084C0.611919 13.3228 0.611919 23.675 7.06618 30.0591C10.4715 33.4296 14.996 35.0181 19.4575 34.8311L21.9871 32.3312L27.3613 27.0154C32.1161 22.3122 32.1161 14.6878 27.3613 9.98459C25.2555 7.90168 22.5695 6.74093 19.8182 6.50448L17.6234 8.67337L13.2206 13.0283C10.1673 16.0506 10.1673 20.9494 13.2206 23.9695C14.1029 24.8422 15.1416 25.4613 16.2456 25.831L18.0558 24.0404C16.8519 23.8942 15.6849 23.3633 14.7613 22.4476C12.5556 20.268 12.5556 16.732 14.7591 14.5502ZM16.3021 16.0699L16.2999 16.0742C14.9439 17.4134 14.9439 19.5866 16.2999 20.9257C17.6494 22.2606 19.8356 22.2649 21.1917 20.9386L21.2047 20.9257C22.5608 19.5866 22.5608 17.4134 21.2047 16.0742C19.8508 14.7351 17.6581 14.7329 16.3021 16.0699ZM21.2569 11.169L19.4488 12.9574C20.6527 13.1057 21.8197 13.6367 22.7433 14.5502C24.9491 16.732 24.9491 20.268 22.7433 22.4476L18.9164 26.2351L17.067 28.0644L16.9084 28.2191C14.9938 27.8666 13.1641 26.9573 11.682 25.4935C7.7768 21.6308 7.7768 15.3692 11.682 11.5065L18.6752 4.58925L18.9599 4.30766C22.5629 4.35925 26.1508 5.74355 28.8999 8.46271C34.5044 14.0064 34.5044 22.9936 28.8999 28.5373L28.889 28.548L23.0997 34.2744C25.7879 33.5521 28.3283 32.1463 30.4384 30.0591C36.8927 23.675 36.8927 13.3228 30.4384 6.94084C27.0309 3.57037 22.5086 1.97971 18.045 2.16672L15.5176 4.66878L10.1738 9.95449L10.1434 9.98459C5.38851 14.6878 5.38851 22.3122 10.1434 27.0154C12.247 29.094 14.9265 30.2547 17.6733 30.4933L19.8639 28.3266L24.0103 24.2274L24.2819 23.9695C27.3374 20.9494 27.3374 16.0506 24.2819 13.0283C23.4018 12.1578 22.363 11.5366 21.2569 11.169Z" fill="#00353B"/>
<path d="M58.8284 28.922H55.7707C55.4317 27.4388 55.071 25.9513 54.6928 24.4596C54.3125 22.9656 53.9518 21.4674 53.6128 19.967L52.6218 15.6658H52.5327C52.3719 16.3773 52.2133 17.0888 52.0525 17.8003C51.8938 18.5118 51.733 19.2254 51.5744 19.9369C51.2332 21.4395 50.8681 22.942 50.4791 24.4445C50.0901 25.9471 49.725 27.4388 49.3838 28.922H46.3262L42.0386 8.31009H45.7264C45.9655 9.73309 46.2154 11.1432 46.4762 12.5361C46.7369 13.9311 46.9868 15.3391 47.2259 16.7621C47.3845 17.5939 47.5258 18.428 47.6453 19.2684C47.7648 20.1089 47.8952 20.9451 48.0343 21.7748H48.156C48.2951 21.1428 48.4298 20.5001 48.5602 19.8467C48.6906 19.1954 48.834 18.5526 48.9948 17.9185C49.3751 16.3171 49.7446 14.7157 50.1031 13.1143C50.4639 11.5129 50.8333 9.9115 51.2136 8.31009H53.9714L56.2206 17.9787C56.3618 18.6322 56.4966 19.2749 56.6248 19.9068C56.7552 20.5388 56.9008 21.1815 57.0594 21.835H57.1811L57.9308 16.9104C58.2307 15.1521 58.4937 13.6001 58.724 12.2545C58.9544 10.911 59.1804 9.59552 59.3999 8.31009H63.0877L58.8284 28.922ZM65.3369 28.922V8.28H76.9394V11.4248H68.7531V16.9405H75.8007V20.0251H68.7531V25.7192H76.9394V28.922H65.3369ZM91.6017 24.5327C91.2627 25.9771 90.5434 27.0992 89.4437 27.8988C88.3441 28.7006 87.0141 29.1004 85.456 29.1004C84.3759 29.1004 83.4371 28.9328 82.6374 28.5974C81.8377 28.26 81.1684 27.7957 80.6273 27.2024C80.0883 26.6091 79.6885 25.9127 79.4277 25.1109C79.1691 24.3113 79.0387 23.445 79.0387 22.5164V14.5094C79.0387 13.699 79.1691 12.908 79.4277 12.1363C79.6885 11.3646 80.084 10.6832 80.612 10.0899C81.1423 9.49664 81.8073 9.02159 82.607 8.66692C83.4067 8.3101 84.3564 8.13168 85.456 8.13168C87.1337 8.13168 88.4984 8.56804 89.548 9.43645C90.5977 10.307 91.2931 11.3947 91.6321 12.6995L88.3637 13.7678C88.3028 13.4711 88.2029 13.1831 88.0638 12.908C87.9247 12.6307 87.7335 12.3792 87.4944 12.1513C87.2532 11.9235 86.9642 11.7408 86.6252 11.6032C86.284 11.4635 85.895 11.3947 85.456 11.3947C84.9344 11.3947 84.4911 11.4828 84.1217 11.6612C83.7501 11.8396 83.4458 12.0718 83.2068 12.3577C82.9656 12.6457 82.7874 12.966 82.6657 13.3228C82.5461 13.6775 82.4875 14.0343 82.4875 14.3911V22.6067C82.4875 23.0409 82.5461 23.4557 82.6657 23.8513C82.7874 24.2468 82.9721 24.5928 83.222 24.8895C83.4719 25.1861 83.7805 25.4183 84.1499 25.5859C84.5215 25.7536 84.9562 25.8374 85.456 25.8374C86.1949 25.8374 86.8251 25.6311 87.3445 25.2162C87.8638 24.7992 88.1942 24.2274 88.3333 23.4944L91.6017 24.5327Z" fill="#FF5100"/>
<path d="M106.953 14.6577C106.953 15.5476 106.825 16.3773 106.564 17.149C106.303 17.9185 105.919 18.5913 105.41 19.1653C104.899 19.7392 104.256 20.1884 103.476 20.5152C102.696 20.8419 101.787 21.0031 100.747 21.0031H97.6889V28.922H94.2705V8.28H100.566C101.546 8.28 102.426 8.40897 103.207 8.66692C103.985 8.92271 104.656 9.31393 105.215 9.83842C105.775 10.3608 106.203 11.025 106.503 11.8246C106.803 12.6264 106.953 13.57 106.953 14.6577ZM103.565 14.5824C103.565 13.5593 103.315 12.779 102.815 12.2352C102.316 11.6956 101.557 11.4248 100.538 11.4248H97.6889V17.8003H100.566C101.588 17.8003 102.342 17.5101 102.831 16.9319C103.32 16.3472 103.565 15.5669 103.565 14.5824ZM109.322 28.922V8.28H112.74V25.7192H120.807V28.922H109.322ZM132.051 24.4746H126.264C126.222 24.6509 126.144 24.9475 126.022 25.3645C125.903 25.7794 125.779 26.2243 125.649 26.6994C125.518 27.1723 125.399 27.6172 125.288 28.0321C125.179 28.447 125.095 28.7458 125.034 28.922H121.465L127.492 8.28H130.79L136.847 28.922H133.22L132.051 24.4746ZM128.091 17.2973L127.013 21.4481H131.271L130.221 17.3274C130.182 17.149 130.117 16.8524 130.025 16.4375C129.936 16.0205 129.836 15.5863 129.726 15.1306C129.617 14.677 129.51 14.2471 129.413 13.8409C129.31 13.4367 129.252 13.1444 129.232 12.966H129.082L128.091 17.2973ZM143.084 16.9405C143.303 16.2677 143.534 15.6056 143.773 14.9543C144.014 14.3009 144.253 13.6388 144.494 12.966L146.322 8.28H149.951L144.672 20.5001V28.922H141.315V20.5001L136.039 8.24991H139.757C140.057 9.06243 140.361 9.86206 140.669 10.6531C140.98 11.4441 141.276 12.2352 141.554 13.0262C141.776 13.6581 141.999 14.3116 142.23 14.9844C142.46 15.6551 142.684 16.3085 142.903 16.9405H143.084Z" fill="#00353B"/>
</svg>
